name C:\Users\r0593348\3dpredictsim\Results\MidTarsalJoint\Fal_s1_bCst_PF_Natali2010_ls150_MT_k150_MTP_T5_ig21.mot
datacolumns 128
datarows 4
range 0.57419152 0.60864301
endheader
time	pelvis_tilt	pelvis_list	pelvis_rotation	pelvis_tx	pelvis_ty	pelvis_tz	hip_flexion_l	hip_adduction_l	hip_rotation_l	hip_flexion_r	hip_adduction_r	hip_rotation_r	knee_angle_l	knee_angle_r	ankle_angle_l	ankle_angle_r	subtalar_angle_l	subtalar_angle_r	mtj_angle_l	mtj_angle_r	mtp_angle_l	mtp_angle_r	lumbar_extension	lumbar_bending	lumbar_rotation	arm_flex_l	arm_add_l	arm_rot_l	arm_flex_r	arm_add_r	arm_rot_r	elbow_flex_l	elbow_flex_r	pro_sup_l	pro_sup_r	glut_med1_l/activation	glut_med2_l/activation	glut_med3_l/activation	glut_min1_l/activation	glut_min2_l/activation	glut_min3_l/activation	semimem_l/activation	semiten_l/activation	bifemlh_l/activation	bifemsh_l/activation	sar_l/activation	add_long_l/activation	add_brev_l/activation	add_mag1_l/activation	add_mag2_l/activation	add_mag3_l/activation	tfl_l/activation	pect_l/activation	grac_l/activation	glut_max1_l/activation	glut_max2_l/activation	glut_max3_l/activation	iliacus_l/activation	psoas_l/activation	quad_fem_l/activation	gem_l/activation	peri_l/activation	rect_fem_l/activation	vas_med_l/activation	vas_int_l/activation	vas_lat_l/activation	med_gas_l/activation	lat_gas_l/activation	soleus_l/activation	tib_post_l/activation	flex_dig_l/activation	flex_hal_l/activation	tib_ant_l/activation	per_brev_l/activation	per_long_l/activation	per_tert_l/activation	ext_dig_l/activation	ext_hal_l/activation	ercspn_l/activation	intobl_l/activation	extobl_l/activation	glut_med1_r/activation	glut_med2_r/activation	glut_med3_r/activation	glut_min1_r/activation	glut_min2_r/activation	glut_min3_r/activation	semimem_r/activation	semiten_r/activation	bifemlh_r/activation	bifemsh_r/activation	sar_r/activation	add_long_r/activation	add_brev_r/activation	add_mag1_r/activation	add_mag2_r/activation	add_mag3_r/activation	tfl_r/activation	pect_r/activation	grac_r/activation	glut_max1_r/activation	glut_max2_r/activation	glut_max3_r/activation	iliacus_r/activation	psoas_r/activation	quad_fem_r/activation	gem_r/activation	peri_r/activation	rect_fem_r/activation	vas_med_r/activation	vas_int_r/activation	vas_lat_r/activation	med_gas_r/activation	lat_gas_r/activation	soleus_r/activation	tib_post_r/activation	flex_dig_r/activation	flex_hal_r/activation	tib_ant_r/activation	per_brev_r/activation	per_long_r/activation	per_tert_r/activation	ext_dig_r/activation	ext_hal_r/activation	ercspn_r/activation	intobl_r/activation	extobl_r/activation	
          0.57419152	         -2.93017649	          2.27584642	         -5.73185230	          0.71773940	          0.91824485	          0.00152071	         28.88481571	          3.71964716	         -2.00655865	        -16.27723850	         -1.31552555	          6.72236628	        -10.52358032	        -10.18832495	          4.75023135	         -3.87782465	         -5.87303462	          8.78919728	         -0.32012140	          7.15251164	          1.00356030	          7.88324582	         -1.71376168	         -0.39409826	          2.26933481	         -5.23497051	        -13.45142607	          8.72981177	          5.58013582	        -13.45797766	         17.98092244	         14.74263330	         33.50161454	         86.51662706	         86.51662706	          0.08377153	          0.05000160	          0.05000004	          0.05957008	          0.05956988	          0.05000027	          0.18852437	          0.05000048	          0.07122189	          0.05000005	          0.05000016	          0.12002041	          0.24757781	          0.22248243	          0.15501316	          0.09191499	          0.05000010	          0.07097483	          0.10848791	          0.05000029	          0.05000083	          0.10203125	          0.07097101	          0.06091521	          0.53570430	          0.18734550	          0.13766848	          0.08455502	          0.17886860	          0.17739136	          0.15307451	          0.05000000	          0.05000001	          0.05000000	          0.05000002	          0.05000022	          0.05000018	          0.50417817	          0.26445470	          0.16570292	          0.19874743	          0.46906824	          0.05957001	          0.05000001	          0.12109532	          0.10073932	          0.26681597	          0.09155742	          0.06551071	          0.26377394	          0.17794604	          0.10073816	          0.05000093	          0.05000019	          0.05000020	          0.05000012	          0.09659190	          0.06739235	          0.07093102	          0.05000182	          0.05000163	          0.05000157	          0.28112125	          0.05669842	          0.05000098	          0.05000073	          0.05000049	          0.05000053	          0.35292197	          0.54343778	          0.05000014	          0.05000106	          0.05956983	          0.23628111	          0.05000055	          0.06836433	          0.13522226	          0.26162976	          0.35506064	          0.34024899	          0.24194141	          0.21098398	          0.28113646	          0.05000002	          0.05000024	          0.12284928	          0.05000010	          0.05000002	          0.05000012	          0.05000000	          0.07207932	          0.05627590	
          0.58567535	         -2.92814145	          2.36045342	         -6.00216877	          0.73524430	          0.91734696	          0.00134787	         28.18216953	          4.01982508	         -1.74206180	        -16.28365452	         -1.63527683	          6.53243125	        -10.97502482	        -11.84483319	          4.05335883	         -4.36236654	         -6.25946310	          9.77207749	         -0.50915890	          5.78966345	          0.99836148	         10.02745253	         -1.49989492	         -0.59113162	          2.33681718	         -6.17127795	        -13.45028919	          8.54123726	          5.23986281	        -13.46603633	         18.20715681	         14.42105897	         34.68841506	         86.51662706	         86.51662706	          0.21822074	          0.05000002	          0.16286169	          0.05000020	          0.05000006	          0.05000009	          0.17566282	          0.08725956	          0.07986202	          0.05000007	          0.05000346	          0.10073924	          0.20780465	          0.18674087	          0.13011049	          0.09082398	          0.05000020	          0.05957334	          0.09106537	          0.05000023	          0.06850836	          0.08564006	          0.05956980	          0.05956906	          0.44964378	          0.15724859	          0.11555220	          0.07097131	          0.15013349	          0.14889356	          0.12848320	          0.05579963	          0.05813315	          0.05528691	          0.05164436	          0.05000031	          0.05000037	          0.42318232	          0.25463075	          0.16347791	          0.16681880	          0.55031298	          0.05000014	          0.05000000	          0.12114854	          0.08455562	          0.31495916	          0.07684879	          0.05498648	          0.22139889	          0.14935915	          0.08455466	          0.05000097	          0.05000032	          0.05000021	          0.05000007	          0.08107456	          0.09166568	          0.05957009	          0.05956997	          0.05956990	          0.05956989	          0.23595948	          0.05958650	          0.05051844	          0.05000290	          0.05000402	          0.05956946	          0.29622761	          0.54724782	          0.05956759	          0.05000059	          0.05000005	          0.19832271	          0.14793976	          0.05957152	          0.11349931	          0.21959911	          0.29802039	          0.28558822	          0.20307373	          0.17708963	          0.23597217	          0.05000000	          0.05000017	          0.15585226	          0.05000003	          0.05000001	          0.05000004	          0.05000004	          0.06049982	          0.05957005	
          0.59715918	         -2.92381491	          2.44635441	         -6.23592157	          0.75297946	          0.91651881	          0.00117852	         27.36281852	          4.26516636	         -1.46848727	        -16.22642338	         -1.95173560	          6.34217685	        -11.40623534	        -13.58108858	          3.33997846	         -4.96011071	         -6.65553562	         10.70758036	         -0.49562193	          4.21503897	          1.04128663	         12.36803453	         -1.27497015	         -0.80035335	          2.39394147	         -7.11583717	        -13.45424430	          8.39240560	          4.82299977	        -13.47525498	         18.35199558	         14.14617580	         35.86482267	         86.51662706	         86.51662706	          0.28784112	          0.24797397	          0.29996467	          0.19416198	          0.18870647	          0.16745860	          0.14744271	          0.07324146	          0.06703226	          0.08455512	          0.05000114	          0.08455556	          0.17442098	          0.15674114	          0.10920843	          0.11963761	          0.05000022	          0.05000310	          0.09385501	          0.17956272	          0.13987424	          0.09139715	          0.05000004	          0.05000004	          0.37740882	          0.13198676	          0.14037073	          0.05956983	          0.12601468	          0.12497396	          0.10784250	          0.05000006	          0.05000017	          0.05000000	          0.05000001	          0.05000009	          0.05000011	          0.54198766	          0.33674410	          0.18558938	          0.46961218	          0.49541830	          0.22013962	          0.06825986	          0.10664272	          0.07097182	          0.29679808	          0.06450310	          0.05000003	          0.36577014	          0.12536474	          0.07097104	          0.05000056	          0.05000005	          0.05000004	          0.05000016	          0.07097296	          0.07693975	          0.05000024	          0.05000016	          0.05000027	          0.05000018	          0.20365174	          0.05001444	          0.05000015	          0.05000046	          0.05000024	          0.05000013	          0.25824361	          0.52438049	          0.05000002	          0.05000020	          0.05000017	          0.16646236	          0.14215780	          0.05000148	          0.12365232	          0.18432066	          0.25014362	          0.23970867	          0.17045008	          0.14864034	          0.19806343	          0.05069215	          0.05383256	          0.16461151	          0.05000043	          0.09366947	          0.05000027	          0.05643569	          0.05078057	          0.05000017	
          0.60864301	         -2.91764103	          2.52263807	         -6.43237787	          0.77073758	          0.91581154	          0.00097811	         26.54890414	          4.50704276	         -1.20184729	        -16.05828778	         -2.25196294	          6.16829071	        -11.87455713	        -15.45034564	          2.74046919	         -5.70322287	         -7.04871874	         11.60335986	         -0.53761655	          2.48978510	          1.07185969	         14.78410990	         -1.05860568	         -1.00829607	          2.44168632	         -8.02641787	        -13.45651302	          8.28707384	          4.36981242	        -13.49062925	         18.44387391	         13.89758020	         37.00160068	         86.51662706	         86.51662706	          0.37930044	          0.33428641	          0.38050527	          0.20658086	          0.15839209	          0.21610238	          0.12375618	          0.07651837	          0.07157087	          0.07097141	          0.05000016	          0.07097180	          0.14640046	          0.13725562	          0.16672962	          0.15333984	          0.05000010	          0.05000424	          0.08021575	          0.22926421	          0.17920944	          0.14559268	          0.05000006	          0.05000005	          0.31677836	          0.11078322	          0.18472314	          0.05000002	          0.17312096	          0.17821512	          0.14408008	          0.05000001	          0.05000002	          0.05000000	          0.05000001	          0.05000006	          0.05000006	          0.61314267	          0.28264640	          0.15577458	          0.49015937	          0.57647508	          0.26212002	          0.08504931	          0.08951064	          0.05957024	          0.29982698	          0.05414074	          0.05000003	          0.30700949	          0.10522501	          0.05956962	          0.05000056	          0.05000007	          0.05000006	          0.05000004	          0.05957130	          0.10777249	          0.07465964	          0.05000112	          0.05000135	          0.05000080	          0.17093538	          0.05961798	          0.05000027	          0.05000081	          0.05000053	          0.05000037	          0.21675697	          0.49086256	          0.05000006	          0.05000020	          0.05000003	          0.13972030	          0.11932049	          0.11797931	          0.10378776	          0.15470967	          0.20995822	          0.20119963	          0.14306740	          0.12476141	          0.16624470	          0.10217366	          0.12048911	          0.13924212	          0.05000038	          0.15492463	          0.05000096	          0.07718611	          0.05000000	          0.05000000	
